<?xml version="1.0" encoding="UTF-8" standalone="no" ?>
<!DOCTYPE svg PUBLIC "-//W3C//DTD SVG 1.1//EN" "http://www.w3.org/Graphics/SVG/1.1/DTD/svg11.dtd">
<svg xmlns="http://www.w3.org/2000/svg" xmlns:xlink="http://www.w3.org/1999/xlink" version="1.1" width="1280" height="1024" viewBox="0 0 1280 1024" xml:space="preserve">
<desc>Created with Fabric.js 5.3.0</desc>
<defs>
</defs>
<g transform="matrix(1 0 0 1 640 512)" id="background-logo"  >
<rect style="stroke: none; stroke-width: 0; stroke-dasharray: none; stroke-linecap: butt; stroke-dashoffset: 0; stroke-linejoin: miter; stroke-miterlimit: 4; fill: rgb(250,254,255); fill-rule: nonzero; opacity: 1;"  paint-order="stroke"  x="-640" y="-512" rx="0" ry="0" width="1280" height="1024" />
</g>
<g transform="matrix(1.9211538461538462 0 0 1.9211538461538462 640 387.654799962477)" id="logo-logo"  >
<g style=""  paint-order="stroke"   >
		<g transform="matrix(1.8262149435636224 0 0 1.8262149435636224 -42.191093696818314 19.25194378188189)"  >
<path style="stroke: none; stroke-width: 1; stroke-dasharray: none; stroke-linecap: butt; stroke-dashoffset: 0; stroke-linejoin: miter; stroke-miterlimit: 4; fill: rgb(89,199,220); fill-rule: evenodd; opacity: 1;"  paint-order="stroke"  transform=" translate(-274.2094727, -432.25732425)" d="M 272.4619141 400.2768555 L 292.3320313 400.2768555 L 275.19433599999996 464.237793 C 266.28662119999996 463.32861330000003 259.57128909999994 462.10302740000003 256.08691409999994 461.3881836 L 272.4619141 400.2768555 L 272.4619141 400.2768555 z" stroke-linecap="round" />
</g>
		<g transform="matrix(1.8262149435636224 0 0 1.8262149435636224 23.353793661466 -5.623101263359899)"  >
<path style="stroke: none; stroke-width: 1; stroke-dasharray: none; stroke-linecap: butt; stroke-dashoffset: 0; stroke-linejoin: miter; stroke-miterlimit: 4; fill: rgb(0,162,217); fill-rule: evenodd; opacity: 1;"  paint-order="stroke"  transform=" translate(-310.10058595, -418.63623045)" d="M 293.5512695 371.8901367 L 320.3935547 371.8901367 L 295.3427734 465.3823242 C 285.071289 465.2641601 276.0317382 464.4370117 269 463.5180664 L 293.5512695 371.8901367 L 293.5512695 371.8901367 z M 335.0800781 415.5405273 L 351.20117189999996 415.5405273 L 338.9941406 461.0981445 C 333.2841797 462.3637695 327.6269531 463.3012695 322.1035156 463.9702148 L 335.0800781 415.5405273 L 335.0800781 415.5405273 z" stroke-linecap="round" />
</g>
		<g transform="matrix(1.8262149435636224 0 0 1.8262149435636224 27.752136111511504 2.165729249746903)"  >
<path style="stroke: none; stroke-width: 1; stroke-dasharray: none; stroke-linecap: butt; stroke-dashoffset: 0; stroke-linejoin: miter; stroke-miterlimit: 4; fill: rgb(2,108,182); fill-rule: evenodd; opacity: 1;"  paint-order="stroke"  transform=" translate(-312.50903325, -422.9012434708156)" d="M 311.4951172 380.40625 L 336.2460938 380.40625 L 313.63183599999996 464.8032227 C 304.7392579 465.4819336 296.3305665 465.5200196 288.7719727 465.2084961 L 311.4951172 380.40625 L 311.4951172 380.40625 z" stroke-linecap="round" />
</g>
		<g transform="matrix(1.8262149435636224 0 0 1.8262149435636224 11.194037701275136 2.1530254214104616)"  >
<path style="stroke: none; stroke-width: 1; stroke-dasharray: none; stroke-linecap: butt; stroke-dashoffset: 0; stroke-linejoin: miter; stroke-miterlimit: 4; fill: rgb(0,121,191); fill-rule: evenodd; opacity: 1;"  paint-order="stroke"  transform=" translate(-303.44213865, -422.8942871)" d="M 318.1123047 380.40625 L 295.3427734 465.38232419999997 C 293.0898437 465.3569336 290.8984375 465.29638669999997 288.7719726 465.2084961 L 311.4951171 380.40625 L 318.1123047 380.40625 L 318.1123047 380.40625 z" stroke-linecap="round" />
</g>
		<g transform="matrix(1.8262149435636224 0 0 1.8262149435636224 0 25.920125035649193)"  >
<path style="stroke: none; stroke-width: 1; stroke-dasharray: none; stroke-linecap: butt; stroke-dashoffset: 0; stroke-linejoin: miter; stroke-miterlimit: 4; fill: rgb(0,185,216); fill-rule: evenodd; opacity: 1;"  paint-order="stroke"  transform=" translate(-297.3125, -435.9086914)" d="M 269 463.5180664 L 285.9453125 400.2768555 L 292.3320313 400.2768555 L 275.19433599999996 464.237793 C 272.9907227 464.012207 270.9194336 463.769043 269 463.5180664 L 269 463.5180664 z M 345.1767578 447.6948242 C 351.7744141 450.08349610000005 355.625 453.13818360000005 355.625 456.6088867 C 355.625 461.2573242 348.7148437 465.1625976 337.5419922 467.7172851 C 327.2109375 470.0795898 312.9853516 471.5405273 297.3125 471.5405273 C 281.6396484 471.5405273 267.4140625 470.0795898 257.0830078 467.7172851 C 245.9106445 465.1625977 239 461.2573242 239 456.6088867 C 239 451.9594726 245.9106445 448.0541992 257.0830078 445.4995117 C 257.4921875 445.4057617 257.9077148 445.3139648 258.32861330000003 445.22412110000005 L 257.1196289 449.73681640000007 C 248.4594726 451.79443360000005 243.1435547 454.2348633000001 243.1435547 456.6088867000001 C 243.1435547 459.0620117000001 248.8232422 461.58740230000006 258.0058594 463.6870117000001 C 268.0297852 465.97900390000007 281.9243164 467.3969726000001 297.3125 467.3969726000001 C 312.7011719 467.3969726000001 326.5957031 465.9790038000001 336.6191406 463.6870117000001 C 345.80175779999996 461.58740230000006 351.48144529999996 459.0620117000001 351.48144529999996 456.6088867000001 C 351.48144529999996 454.9213867000001 348.79492189999996 453.1997070000001 344.12890619999996 451.6059570000001 L 345.1767578 447.6948242 L 345.1767578 447.6948242 z" stroke-linecap="round" />
</g>
</g>
</g>
<g transform="matrix(1.9211538461538462 0 0 1.9211538461538462 639.445266826923 666.1100526034797)" id="text-logo"  >
<g style=""  paint-order="stroke"   >
		<g transform="matrix(1 0 0 1 0 0)" id="text-logo-path-0"  >
<path style="stroke: none; stroke-width: 0; stroke-dasharray: none; stroke-linecap: butt; stroke-dashoffset: 0; stroke-linejoin: miter; stroke-miterlimit: 4; fill: rgb(2,108,182); fill-rule: nonzero; opacity: 1;"  paint-order="stroke"  transform=" translate(-310.75000000000006, 19.14)" d="M 12.32 0.55 L 12.32 0.55 Q 9.29 0.55 6.85 -0.96 Q 4.4 -2.48 2.97 -5 Q 1.54 -7.54 1.54 -10.67 L 1.54 -10.67 L 1.59 -27.83 Q 1.59 -30.86 3 -33.36 Q 4.4 -35.86 6.85 -37.37 Q 9.29 -38.88 12.32 -38.88 L 12.32 -38.88 Q 15.35 -38.88 17.77 -37.4 Q 20.18 -35.91 21.61 -33.41 Q 23.05 -30.91 23.05 -27.83 L 23.05 -27.83 L 23.05 -25.3 Q 23.05 -25.08 22.82 -25.08 L 22.82 -25.08 L 16.66 -25.08 Q 16.45 -25.08 16.45 -25.3 L 16.45 -25.3 L 16.45 -27.83 Q 16.45 -29.64 15.26 -30.96 Q 14.08 -32.29 12.32 -32.29 L 12.32 -32.29 Q 10.34 -32.29 9.29 -30.94 Q 8.25 -29.59 8.25 -27.83 L 8.25 -27.83 L 8.25 -10.67 Q 8.25 -8.63 9.43 -7.37 Q 10.62 -6.11 12.32 -6.11 L 12.32 -6.11 Q 14.08 -6.11 15.26 -7.51 Q 16.45 -8.91 16.45 -10.67 L 16.45 -10.67 L 16.45 -13.2 Q 16.45 -13.42 16.66 -13.42 L 16.66 -13.42 L 22.88 -13.42 Q 23.1 -13.42 23.1 -13.2 L 23.1 -13.2 L 23.1 -10.67 Q 23.1 -7.54 21.64 -5 Q 20.18 -2.48 17.77 -0.96 Q 15.35 0.55 12.32 0.55 Z M 38.61 -0.28 L 38.61 -0.28 L 45.43 -38.06 Q 45.48 -38.28 45.7 -38.28 L 45.7 -38.28 L 53.68 -38.28 Q 53.9 -38.28 53.95 -38.06 L 53.95 -38.06 L 60.5 -0.28 Q 60.55 0 60.28 0 L 60.28 0 L 54.17 0 Q 53.95 0 53.9 -0.28 L 53.9 -0.28 L 53.3 -4.29 L 45.81 -4.29 L 45.21 -0.28 Q 45.16 0 44.94 0 L 44.94 0 L 38.83 0 Q 38.61 0 38.61 -0.28 Z M 49.39 -25.63 L 46.91 -10.18 L 52.2 -10.18 L 49.94 -25.63 L 49.61 -27.66 L 49.39 -25.63 Z M 83.93 0 L 77.77 0 Q 77.5 0 77.5 -0.28 L 77.5 -0.28 L 77.61 -38.06 Q 77.61 -38.28 77.83 -38.28 L 77.83 -38.28 L 88.39 -38.28 Q 93.44 -38.28 96.39 -35.2 Q 99.33 -32.12 99.33 -26.84 L 99.33 -26.84 Q 99.33 -22.93 97.79 -20.07 Q 96.25 -17.21 93.78 -15.68 Q 91.3 -14.13 88.39 -14.13 L 88.39 -14.13 L 84.2 -14.13 L 84.2 -0.28 Q 84.2 0 83.93 0 L 83.93 0 Z M 84.2 -31.68 L 84.2 -20.79 L 88.39 -20.79 Q 90.14 -20.79 91.44 -22.47 Q 92.73 -24.14 92.73 -26.84 L 92.73 -26.84 Q 92.73 -28.98 91.58 -30.36 Q 90.42 -31.73 88.39 -31.73 L 88.39 -31.73 L 84.2 -31.68 Z M 122.65 0 L 116.44 0 Q 116.16 0 116.16 -0.28 L 116.16 -0.28 L 116.22 -38.06 Q 116.22 -38.28 116.44 -38.28 L 116.44 -38.28 L 122.6 -38.28 Q 122.82 -38.28 122.82 -38.06 L 122.82 -38.06 L 122.87 -0.28 Q 122.87 0 122.65 0 L 122.65 0 Z M 152.95 0 L 146.74 0 Q 146.52 0 146.52 -0.28 L 146.52 -0.28 L 146.52 -31.63 L 139.37 -31.63 Q 139.09 -31.63 139.09 -31.9 L 139.09 -31.9 L 139.15 -38.06 Q 139.15 -38.28 139.37 -38.28 L 139.37 -38.28 L 160.27 -38.28 Q 160.54 -38.28 160.54 -38.06 L 160.54 -38.06 L 160.54 -31.9 Q 160.54 -31.63 160.32 -31.63 L 160.32 -31.63 L 153.12 -31.63 L 153.17 -0.28 Q 153.17 0 152.95 0 L 152.95 0 Z M 172.37 -0.28 L 172.37 -0.28 L 179.19 -38.06 Q 179.25 -38.28 179.47 -38.28 L 179.47 -38.28 L 187.44 -38.28 Q 187.66 -38.28 187.72 -38.06 L 187.72 -38.06 L 194.26 -0.28 Q 194.31 0 194.04 0 L 194.04 0 L 187.94 0 Q 187.72 0 187.66 -0.28 L 187.66 -0.28 L 187.06 -4.29 L 179.57 -4.29 L 178.97 -0.28 Q 178.91 0 178.69 0 L 178.69 0 L 172.59 0 Q 172.37 0 172.37 -0.28 Z M 183.15 -25.63 L 180.67 -10.18 L 185.95 -10.18 L 183.7 -25.63 L 183.37 -27.66 L 183.15 -25.63 Z M 229.24 0 L 211.47 0 Q 211.25 0 211.25 -0.28 L 211.25 -0.28 L 211.31 -38.01 Q 211.31 -38.28 211.58 -38.28 L 211.58 -38.28 L 217.69 -38.28 Q 217.96 -38.28 217.96 -38.01 L 217.96 -38.01 L 217.91 -6.76 L 229.24 -6.76 Q 229.51 -6.76 229.51 -6.49 L 229.51 -6.49 L 229.51 -0.28 Q 229.51 0 229.24 0 L 229.24 0 Z M 272.58 0 L 266.37 0 Q 266.09 0 266.09 -0.28 L 266.09 -0.28 L 266.14 -38.06 Q 266.14 -38.28 266.37 -38.28 L 266.37 -38.28 L 272.52 -38.28 Q 272.75 -38.28 272.75 -38.06 L 272.75 -38.06 L 272.8 -0.28 Q 272.8 0 272.58 0 L 272.58 0 Z M 297.16 0 L 291.66 0 Q 291.22 0 291.22 -0.39 L 291.22 -0.39 L 291.17 -37.84 Q 291.17 -38.28 291.61 -38.28 L 291.61 -38.28 L 296.56 -38.28 L 305.85 -16.61 L 305.58 -37.84 Q 305.58 -38.28 306.07 -38.28 L 306.07 -38.28 L 311.52 -38.28 Q 311.85 -38.28 311.85 -37.84 L 311.85 -37.84 L 311.9 -0.33 Q 311.9 0 311.63 0 L 311.63 0 L 306.79 0 L 297.27 -20.24 L 297.66 -0.44 Q 297.66 0 297.16 0 L 297.16 0 Z M 343.03 0 L 336.38 0 Q 336.16 0 336.1 -0.28 L 336.1 -0.28 L 328.51 -38.06 Q 328.46 -38.28 328.73 -38.28 L 328.73 -38.28 L 334.95 -38.28 Q 335.17 -38.28 335.22 -38.06 L 335.22 -38.06 L 339.73 -12.87 L 344.13 -38.06 Q 344.19 -38.28 344.41 -38.28 L 344.41 -38.28 L 350.57 -38.28 Q 350.84 -38.28 350.79 -38.06 L 350.79 -38.06 L 343.31 -0.28 Q 343.25 0 343.03 0 L 343.03 0 Z M 385.55 0 L 367.78 0 Q 367.56 0 367.56 -0.28 L 367.56 -0.28 L 367.62 -38.06 Q 367.62 -38.28 367.84 -38.28 L 367.84 -38.28 L 385.49 -38.28 Q 385.71 -38.28 385.71 -38.01 L 385.71 -38.01 L 385.71 -31.84 Q 385.71 -31.63 385.49 -31.63 L 385.49 -31.63 L 374.22 -31.63 L 374.22 -23.05 L 385.49 -23.05 Q 385.71 -23.05 385.71 -22.82 L 385.71 -22.82 L 385.77 -16.61 Q 385.77 -16.39 385.55 -16.39 L 385.55 -16.39 L 374.22 -16.39 L 374.22 -6.76 L 385.55 -6.76 Q 385.77 -6.76 385.77 -6.49 L 385.77 -6.49 L 385.77 -0.22 Q 385.77 0 385.55 0 L 385.55 0 Z M 413.21 0.55 L 413.21 0.55 Q 410.24 0.55 407.8 -0.96 Q 405.35 -2.48 403.89 -4.98 Q 402.43 -7.48 402.43 -10.51 L 402.43 -10.51 L 402.43 -13.04 Q 402.43 -13.31 402.71 -13.31 L 402.71 -13.31 L 408.87 -13.31 Q 409.09 -13.31 409.09 -13.04 L 409.09 -13.04 L 409.09 -10.51 Q 409.09 -8.69 410.3 -7.4 Q 411.51 -6.11 413.21 -6.11 L 413.21 -6.11 Q 414.92 -6.11 416.13 -7.42 Q 417.34 -8.74 417.34 -10.51 L 417.34 -10.51 Q 417.34 -12.54 414.7 -14.03 L 414.7 -14.03 Q 413.82 -14.52 411.95 -15.56 Q 410.08 -16.61 408.43 -17.55 L 408.43 -17.55 Q 405.4 -19.3 403.95 -21.97 Q 402.49 -24.64 402.49 -28 L 402.49 -28 Q 402.49 -31.07 403.97 -33.52 Q 405.46 -35.97 407.91 -37.4 Q 410.35 -38.83 413.21 -38.83 L 413.21 -38.83 Q 416.13 -38.83 418.58 -37.37 Q 421.02 -35.91 422.48 -33.47 Q 423.94 -31.02 423.94 -28 L 423.94 -28 L 423.94 -23.48 Q 423.94 -23.27 423.72 -23.27 L 423.72 -23.27 L 417.56 -23.27 Q 417.34 -23.27 417.34 -23.48 L 417.34 -23.48 L 417.28 -28 Q 417.28 -29.92 416.07 -31.13 Q 414.86 -32.34 413.21 -32.34 L 413.21 -32.34 Q 411.51 -32.34 410.3 -31.05 Q 409.09 -29.75 409.09 -28 L 409.09 -28 Q 409.09 -26.18 409.86 -24.97 Q 410.63 -23.76 412.66 -22.66 L 412.66 -22.66 Q 412.94 -22.5 413.74 -22.08 Q 414.53 -21.67 415.47 -21.15 Q 416.4 -20.63 417.15 -20.24 Q 417.89 -19.86 418.05 -19.75 L 418.05 -19.75 Q 420.8 -18.21 422.4 -15.98 Q 423.99 -13.75 423.99 -10.51 L 423.99 -10.51 Q 423.99 -7.37 422.54 -4.87 Q 421.08 -2.37 418.63 -0.91 Q 416.18 0.55 413.21 0.55 Z M 452.81 0 L 446.6 0 Q 446.38 0 446.38 -0.28 L 446.38 -0.28 L 446.38 -31.63 L 439.23 -31.63 Q 438.95 -31.63 438.95 -31.9 L 438.95 -31.9 L 439.01 -38.06 Q 439.01 -38.28 439.23 -38.28 L 439.23 -38.28 L 460.13 -38.28 Q 460.4 -38.28 460.4 -38.06 L 460.4 -38.06 L 460.4 -31.9 Q 460.4 -31.63 460.18 -31.63 L 460.18 -31.63 L 452.98 -31.63 L 453.03 -0.28 Q 453.03 0 452.81 0 L 452.81 0 Z M 529.98 0.6 L 529.98 0.6 Q 527.06 0.6 524.62 -0.91 Q 522.17 -2.42 520.71 -4.95 Q 519.25 -7.48 519.25 -10.51 L 519.25 -10.51 L 519.25 -12.98 Q 519.25 -13.26 519.47 -13.26 L 519.47 -13.26 L 525.63 -13.26 Q 525.91 -13.26 525.91 -12.98 L 525.91 -12.98 L 525.91 -10.51 Q 525.91 -8.69 527.06 -7.4 Q 528.22 -6.11 529.98 -6.11 L 529.98 -6.11 Q 531.9 -6.11 533 -7.45 Q 534.1 -8.8 534.1 -10.51 L 534.1 -10.51 L 534.1 -11.99 Q 534.1 -13.7 533.03 -15.07 Q 531.96 -16.45 530.31 -16.45 L 530.31 -16.45 L 528.16 -16.45 Q 527.89 -16.45 527.89 -16.72 L 527.89 -16.72 L 527.94 -22.88 Q 527.94 -23.1 528.16 -23.1 L 528.16 -23.1 L 530.31 -23.1 Q 531.79 -23.1 532.95 -24.25 Q 534.1 -25.41 534.1 -27.28 L 534.1 -27.28 L 534.1 -28.05 Q 534.1 -29.81 532.92 -31.05 Q 531.74 -32.29 529.98 -32.29 L 529.98 -32.29 Q 528.27 -32.29 527.09 -31.05 Q 525.91 -29.81 525.91 -28.05 L 525.91 -28.05 L 525.91 -25.41 Q 525.91 -25.14 525.69 -25.14 L 525.69 -25.14 L 519.53 -25.14 Q 519.31 -25.14 519.31 -25.41 L 519.31 -25.41 L 519.31 -28.32 Q 519.31 -31.35 520.82 -33.72 Q 522.33 -36.08 524.78 -37.48 Q 527.23 -38.88 529.98 -38.88 L 529.98 -38.88 Q 532.95 -38.88 535.4 -37.43 Q 537.84 -35.97 539.27 -33.55 Q 540.7 -31.13 540.7 -28.21 L 540.7 -28.21 L 540.7 -27.34 Q 540.7 -24.91 539.91 -23.16 Q 539.11 -21.39 537.68 -19.8 L 537.68 -19.8 Q 539.11 -18.15 539.93 -16.2 Q 540.76 -14.24 540.76 -12.15 L 540.76 -12.15 L 540.76 -10.51 Q 540.76 -7.42 539.3 -4.9 Q 537.84 -2.37 535.4 -0.88 Q 532.95 0.6 529.98 0.6 Z M 568.42 0.55 L 568.42 0.55 Q 565.51 0.55 563.06 -0.96 Q 560.61 -2.48 559.13 -4.95 Q 557.64 -7.42 557.64 -10.39 L 557.64 -10.39 L 557.59 -27.77 Q 557.59 -30.8 559.07 -33.33 Q 560.56 -35.86 563.03 -37.37 Q 565.51 -38.88 568.42 -38.88 L 568.42 -38.88 Q 571.39 -38.88 573.84 -37.37 Q 576.29 -35.86 577.75 -33.36 Q 579.2 -30.86 579.2 -27.77 L 579.2 -27.77 L 579.2 -26.68 Q 579.2 -26.46 578.93 -26.46 L 578.93 -26.46 L 572.77 -26.46 Q 572.55 -26.46 572.55 -26.68 L 572.55 -26.68 L 572.55 -27.77 Q 572.55 -29.59 571.37 -30.88 Q 570.18 -32.17 568.42 -32.17 L 568.42 -32.17 Q 566.72 -32.17 565.51 -30.88 Q 564.3 -29.59 564.3 -27.77 L 564.3 -27.77 L 564.3 -23.98 Q 566.28 -24.8 568.42 -24.8 L 568.42 -24.8 Q 571.39 -24.8 573.84 -23.32 Q 576.29 -21.84 577.72 -19.33 Q 579.15 -16.83 579.15 -13.8 L 579.15 -13.8 L 579.15 -10.39 Q 579.15 -7.42 577.69 -4.92 Q 576.23 -2.42 573.81 -0.94 Q 571.39 0.55 568.42 0.55 Z M 568.42 -6.05 L 568.42 -6.05 Q 570.13 -6.05 571.31 -7.32 Q 572.49 -8.58 572.49 -10.39 L 572.49 -10.39 L 572.49 -13.8 Q 572.49 -15.56 571.31 -16.86 Q 570.13 -18.15 568.42 -18.15 L 568.42 -18.15 Q 566.72 -18.15 565.51 -16.89 Q 564.3 -15.62 564.3 -13.8 L 564.3 -13.8 L 564.3 -10.39 Q 564.3 -8.63 565.51 -7.34 Q 566.72 -6.05 568.42 -6.05 Z M 608.08 0.55 L 608.08 0.55 Q 604.56 0.55 601.86 -0.96 Q 599.17 -2.48 597.66 -4.98 Q 596.14 -7.48 596.14 -10.51 L 596.14 -10.51 L 596.2 -27.94 Q 596.2 -30.96 597.71 -33.44 Q 599.22 -35.91 601.92 -37.4 Q 604.61 -38.88 608.08 -38.88 L 608.08 -38.88 Q 611.6 -38.88 614.24 -37.4 Q 616.88 -35.91 618.39 -33.44 Q 619.9 -30.96 619.9 -27.94 L 619.9 -27.94 L 619.96 -10.51 Q 619.96 -7.48 618.45 -4.98 Q 616.93 -2.48 614.27 -0.96 Q 611.6 0.55 608.08 0.55 Z M 613.3 -10.51 L 613.3 -10.51 L 613.25 -27.94 Q 613.25 -29.86 611.82 -31.07 Q 610.39 -32.29 608.08 -32.29 L 608.08 -32.29 Q 605.71 -32.29 604.28 -31.07 Q 602.85 -29.86 602.85 -27.94 L 602.85 -27.94 L 602.85 -10.51 Q 602.85 -8.47 604.28 -7.29 Q 605.71 -6.11 608.08 -6.11 L 608.08 -6.11 Q 610.39 -6.11 611.85 -7.29 Q 613.3 -8.47 613.3 -10.51 Z" stroke-linecap="round" />
</g>
</g>
</g>
<g transform="matrix(1 0 0 1 325 406.1341671221551)" id="tagline-2b210a83-d169-46a9-9fd0-a5455f72dedc-logo"  >
<g style=""  paint-order="stroke"   >
		<g transform="matrix(1 0 0 1 0 0)" id="tagline-2b210a83-d169-46a9-9fd0-a5455f72dedc-logo-path-0"  >
<path style="stroke: none; stroke-width: 0; stroke-dasharray: none; stroke-linecap: butt; stroke-dashoffset: 0; stroke-linejoin: miter; stroke-miterlimit: 4; fill: rgb(2,108,182); fill-rule: nonzero; opacity: 1;"  paint-order="stroke"  transform=" translate(0, 0)" d="" stroke-linecap="round" />
</g>
</g>
</g>
</svg>