<?xml version="1.0" encoding="UTF-8"?> <!-- Generator: Adobe Illustrator 25.0.0, SVG Export Plug-In . SVG Version: 6.00 Build 0) --> <svg xmlns="http://www.w3.org/2000/svg" xmlns:xlink="http://www.w3.org/1999/xlink" version="1.1" id="Layer_1" x="0px" y="0px" viewBox="0 0 122 60" style="enable-background:new 0 0 122 60;" xml:space="preserve"> <style type="text/css"> .st0{fill:none;} .st1{fill:#15182B;} .st2{fill-rule:evenodd;clip-rule:evenodd;fill:#15182B;} </style> <rect class="st0" width="121.5" height="60"></rect> <g> <path class="st1" d="M12.6,37.9l4.7-4.8l-5.8-7.8L4.1,14.9C1.4,19.4,0,24.7,0,30c0,9.2,4.1,17.3,10.6,22.8l9.4-6.6 C16.7,44.2,14.2,41.4,12.6,37.9L12.6,37.9z M22.1,12.6l4.8,4.7l7.8-5.8l10.4-7.4C40.6,1.4,35.3,0,30,0C20.9,0,12.7,4.1,7.2,10.6 l6.6,9.4C15.8,16.7,18.6,14.2,22.1,12.6L22.1,12.6z M42.7,26.9l5.8,7.8l7.4,10.4C58.6,40.6,60,35.3,60,30c0-9.1-4.1-17.3-10.6-22.8 l-9.4,6.6c3.2,2,5.7,4.9,7.3,8.3L42.7,26.9L42.7,26.9z M52.8,49.4l-6.6-9.4c-2,3.2-4.9,5.7-8.3,7.3l-4.8-4.7l-7.8,5.8l-10.4,7.4 C19.4,58.6,24.7,60,30,60C39.2,60,47.3,55.9,52.8,49.4z"></path> <path class="st2" d="M77.6,29.5C77.6,19.8,81.6,15,88,15c6.3,0,10.4,4.9,10.4,14.5C98.4,39.2,94.2,44,88,44 C81.7,44,77.6,39.2,77.6,29.5z M87.9,18.1c-4.6,0-6.8,4.2-6.8,11.4c0,3.4,0.5,6,1.5,7.9l9-18.1C90.5,18.5,89.3,18.1,87.9,18.1z M84.4,39.8c1,0.8,2.2,1.2,3.6,1.2c4.6,0,6.9-4.3,6.9-11.4c0-3.3-0.5-5.9-1.5-7.9L84.4,39.8z M121,23.4l-5.8,9.7l6.3,10.4h-3.9 l-5.1-8.4h-1.4l-5.2,8.4h-3.8l6.3-10.3l-5.7-9.8h3.7l4.7,8h1.5l4.8-8L121,23.4L121,23.4z"></path> </g> </svg> 