<?xml version="1.0" encoding="UTF-8"?> <!-- Generator: Adobe Illustrator 25.0.0, SVG Export Plug-In . SVG Version: 6.00 Build 0) --> <svg xmlns="http://www.w3.org/2000/svg" xmlns:xlink="http://www.w3.org/1999/xlink" version="1.1" id="Layer_1" x="0px" y="0px" viewBox="0 0 170 60" style="enable-background:new 0 0 170 60;" xml:space="preserve"> <style type="text/css"> .st0{fill:#15182B;} .st1{fill:#FFFFFF;} .st2{fill:#394372;} </style> <g> <path class="st0" d="M73.8,14.9h6.4v25.7h6.4V8.5h-6.4C76.7,8.5,73.8,11.4,73.8,14.9z"></path> <path class="st0" d="M93,40.6h6.4V27.7c0-3.5-2.9-6.4-6.4-6.4V40.6z"></path> <path class="st0" d="M105.9,21.3v19.2h6.4V27.7h6.4v6.4c0,3.5,2.9,6.4,6.4,6.4V27.7c0-3.5-2.9-6.4-6.4-6.4H105.9z"></path> <path class="st0" d="M163.6,21.3h-6.4v-6.4c0-3.5-2.9-6.4-6.4-6.4v25.7h-12.8v-6.4h6.4v-6.4h-6.4c-3.5,0-6.4,2.9-6.4,6.4v6.4 c0,3.5,2.9,6.4,6.4,6.4h19.2V27.7h6.4v6.4c0,3.5,2.9,6.4,6.4,6.4V27.7C170,24.2,167.1,21.3,163.6,21.3z"></path> <path class="st0" d="M93,14.9h6.4c0-3.5-2.9-6.4-6.4-6.4V14.9z"></path> <path class="st1" d="M82.8,51.4h-2.7v-4.3h2.6v0.7H81v1.1h1.6v0.7H81v1.1h1.9V51.4z"></path> <path class="st0" d="M94.5,47.1h0.9l-1.5,2.1l1.6,2.2h-0.9l-1.2-1.6l-1.2,1.6h-0.9l1.6-2.2l-1.5-2.1h0.9l1.1,1.6L94.5,47.1z"></path> <path class="st0" d="M107,50.4l0.3,0.6c-0.1,0.1-0.3,0.3-0.6,0.4c-0.3,0.1-0.5,0.1-0.8,0.1c-0.7,0-1.2-0.2-1.7-0.6 c-0.4-0.4-0.6-0.9-0.6-1.6c0-0.6,0.2-1.2,0.6-1.6s1-0.6,1.7-0.6c0.6,0,1,0.1,1.4,0.4l-0.4,0.6c-0.3-0.2-0.6-0.3-1-0.3 c-0.4,0-0.8,0.1-1.1,0.4c-0.3,0.3-0.4,0.6-0.4,1.1c0,0.4,0.1,0.8,0.4,1.1c0.3,0.3,0.7,0.4,1.1,0.4C106.4,50.8,106.7,50.6,107,50.4z "></path> <path class="st0" d="M119.8,51.4H119v-1.9h-2.1v1.9h-0.8v-4.3h0.8v1.8h2.1v-1.8h0.8V51.4z"></path> <path class="st0" d="M129.2,51.4h-0.8l1.9-4.4h0.7l1.9,4.4h-0.8l-0.5-1.1h-1.9L129.2,51.4z M131.3,49.6l-0.7-1.6l-0.7,1.6H131.3z"></path> <path class="st0" d="M145.4,47.1v4.3h-0.6l-2.5-3v3h-0.7v-4.3h0.6l2.5,3v-3H145.4z"></path> <path class="st0" d="M157.6,49.8h-1.1v-0.7h1.8v1.8c-0.2,0.2-0.4,0.3-0.8,0.4c-0.3,0.1-0.6,0.2-0.9,0.2c-0.7,0-1.3-0.2-1.7-0.6 c-0.4-0.4-0.6-0.9-0.6-1.6c0-0.6,0.2-1.2,0.6-1.6c0.4-0.4,0.9-0.6,1.6-0.6c0.6,0,1.1,0.1,1.4,0.4l-0.3,0.6 c-0.1-0.1-0.3-0.2-0.4-0.2c-0.2-0.1-0.4-0.1-0.6-0.1c-0.4,0-0.8,0.1-1.1,0.4c-0.3,0.3-0.4,0.6-0.4,1.1c0,0.5,0.1,0.8,0.4,1.1 c0.3,0.3,0.6,0.4,1.1,0.4c0.2,0,0.3,0,0.5-0.1c0.2-0.1,0.3-0.1,0.4-0.2L157.6,49.8L157.6,49.8z"></path> <path class="st0" d="M170,51.4h-2.7v-4.3h2.6v0.7h-1.8v1.1h1.6v0.7h-1.6v1.1h1.9V51.4z"></path> <path class="st1" d="M15.2,33.1l1.7-12.7L2.2,10.2l13.4,4.5l3.2-4.8l11.5-7.2l25.4,14L57,38.1L45.7,53.8l-8.9,1.4l4.6-8.5v-8.2 L38,32.2L34.6,30l-5.3,5.4v5.7L25.2,45L20,45.6l-2.3,1.3l-3.8-1.2L12.4,40l2.8-4L15.2,33.1L15.2,33.1z"></path> <path class="st2" d="M38.5,10.1c-2.8-0.6-5.8-0.4-5.8-0.4s-1,4.6-7.2,5.8C25.5,15.5,33.7,18.3,38.5,10.1z"></path> <path class="st2" d="M41,52.1c3.4-2.6,5.9-6.3,7.1-10.4c0-0.2,0.5-0.4,0.8-0.6c0.5-0.3,1.1-0.6,1.2-1c0.2-1.2,0.3-2.5,0.3-3.7 c0-0.5-0.5-0.9-0.9-1.4c-0.4-0.3-0.7-0.7-0.7-0.9c-0.5-4.8-2.7-9.3-6.3-12.5l-0.4,0.4c3.4,3.2,5.6,7.6,6.1,12.2 c0,0.4,0.5,0.8,0.9,1.3c0.4,0.3,0.8,0.8,0.8,1c0,1.2-0.1,2.4-0.3,3.6c0,0.2-0.5,0.4-0.9,0.6c-0.5,0.3-1,0.5-1.1,0.9 c-1.3,4.5-4.2,8.4-8,10.9c0.7-1.5,2.8-6.3,4-8.7l-0.2-7.8l-6.7-6.5L32.9,30l-4.2,6.7c0,0,1.9,2.5-0.8,5.4c-2.7,2.8-4.8,3.5-4.8,3.5 l-1.9-1.1c0.6-0.7,1.7-1.8,2.6-2.6c1.5-1.3,3-1.4,3-2.7c0-2.8-3-2.1-3-2.1l-1.1,1.1l-0.5,3.9L20,45l-0.3,0L16,44.1 c0,0,2.3-1.2,2.7-2.6c0.4-1.3-0.7-5.7-0.8-5.9c0,0,1.1,0.9,1.6,2.4c0.8-2.3,1.9-4.5,2.3-4.7c0.3-0.2,4.6-2.5,4.6-2.5l-1.4,3.7 l1.1-0.6l2.5-6.2c0,0,2.5-1.2,4.3-1.2c3.3,0,8.2-4.1,6-11.4c0.6,0.3,11.6,5.7,13.5,16.5C53.6,39.9,49,47.6,41,52.1z"></path> <path class="st2" d="M28.5,11.3c1.2-1.4,0.7-3.5,0.7-3.5L25.7,13C25.7,13,27,13,28.5,11.3z"></path> <path class="st2" d="M16.7,39.8l0.4-2.1c0,0-1.7,3-1.9,3.5c-0.2,0.5,0.1,1.3,0.8,1.3c0.7,0,1.5-1.1,1.5-1.8 C17.5,39.6,16.7,39.8,16.7,39.8z"></path> <path class="st0" d="M47.9,6.3c0,0,2.6,0.1,5.4,0.4c-6.2-4.8-12-6.3-16.7-6.3c-6.5,0-10.9,2.7-11.2,2.8L27.4,0 c0,0-8.2-0.8-11.1,7.9c-0.8-1.8-1.4-4.5-1.4-4.5s-4.3,3.7-2.3,9.9C7.7,11.5,0.8,9.1,0.5,9C0.1,9,0,9.1,0,9.1s-0.1,0.2,0.2,0.4 c0.6,0.5,11.6,8.6,14,10.2c-0.5,1.9-0.5,2.8,0,3.7c0.7,1.2,0.8,1.8,0.7,2.7c-0.1,0.9-1.1,8.6-1.3,9.6c-0.2,0.9-2.4,4.3-2.3,5.3 c0.1,1,1.5,5.3,2.7,5.7c0.9,0.3,3.1,1,4.6,1c0.5,0,1-0.1,1.2-0.3c0.9-0.8,1.2-0.9,1.8-0.9c0,0,0.1,0,0.2,0c0.3,0,0.6,0,0.9,0 c0.8,0,1.9-0.2,2.7-0.9c1.2-1.2,3.2-2.7,3.8-3.5c0.8-1,1.2-2.4,1-3.7c-0.2-1.3,0.5-2.4,1.3-3.5c1-1.3,2.8-3.7,2.8-3.7 c3.6,2.7,5.9,6.9,5.9,11.5c0,8.2-7.2,14.8-16,14.8c-1.4,0-2.7-0.2-4-0.5c4.1,1.4,7.5,1.9,10.3,1.9c5.9,0,9.1-2.2,9.1-2.2 s-1.1,1.4-2.9,3c0,0,0,0,0,0c9.8-1.4,14.6-9.5,14.6-9.5s-0.4,2.6-0.8,4.4c13.1-9.8,10.9-22.1,10.8-22.6c0.1,0.2,1.4,1.7,2.1,2.6 C65.7,13.3,47.9,6.3,47.9,6.3z M27.8,40.9c-0.2,0.3-1.1,1.1-1.7,1.6c-0.6,0.6-1.3,1.2-1.8,1.7c-0.2,0.2-0.6,0.3-1.3,0.3 c-0.2,0-0.4,0-0.6,0c-0.1,0-0.2,0-0.3,0c-0.1,0-0.2,0-0.2,0c-0.2,0-0.3,0-0.5,0c0.8-1.1,3.1-3.5,3.9-4c0.9-0.6,1.4-1.3,0.8-2.4 c-0.6-1.1-2.1-0.8-2.1-0.8s0.9-0.4,1.7-0.4c-1-0.3-2.3,0-2.8,0.6c-0.6,0.6-0.5,2.6-0.8,3.9c-0.3,1.4-1.2,2.1-2.5,3.3 c-0.7,0.7-1.3,0.9-1.7,0.9c-0.9-0.2-1.9-0.4-2.7-0.7c-0.5-0.7-1.3-3-1.5-3.9c0.2-0.5,0.8-1.6,1.1-2.3c0.6-1.2,1-1.9,1.1-2.5 c0.2-0.9,0.9-6.4,1.2-8.7c0.7,0.9,1.6,2.4,1.4,3.3c1.5-2.2,0.4-4.3-0.1-5.1c-0.5-0.8-1.1-2.5-0.6-4.3c0.5-1.8,2.4-6.7,2.4-6.7 s0.6,1.1,1.5,0.9c0.9-0.2,8.1-11,8.1-11s1.9,4.3-0.1,7.4c-2.1,3.1-4.2,3.7-4.2,3.7s2.9,0.5,5.6-1.4c1.1,2.6,2.2,5.3,2.2,5.6 c-0.2,0.4-2.3,5.4-2.5,5.7c-0.1,0.1-0.8,0.3-1.4,0.4c-0.9,0.3-1.4,0.4-1.6,0.6c-0.4,0.3-2.1,4.9-2.8,7.2c-0.9,0.3-1.9,0.8-2.6,1.8 c0.4-0.3,1.5-0.4,2.4-0.5c0.7,0,3,1.2,3.6,3.4c0,0,0,0,0,0.1C28.5,39.5,28.2,40.3,27.8,40.9z M22.8,41.5c0.5-0.7,0.4-1.8,0.5-2.2 c0.1-0.4,0.2-1.1,0.6-1.2c0.4-0.1,1.4,0,1.4,0.8c0,0.7-0.7,0.8-1.3,1.3C23.7,40.6,23,41.4,22.8,41.5z M43.8,31.5 c0.5-2.7,0.6-5,0.4-6.9c2.1,2.7,3.3,6,3.7,9.5c0,0.4,0.5,0.8,0.9,1.3c0.4,0.3,0.8,0.7,0.8,1c0,1.2-0.1,2.4-0.3,3.6 c0,0.2-0.5,0.4-0.9,0.6c-0.5,0.3-1,0.5-1.1,0.9c-1.2,4.1-3.6,7.6-6.9,10.1C45.3,46.6,47.6,38.2,43.8,31.5z M40.5,52.2 c3.4-2.6,6-6.3,7.2-10.5c0-0.2,0.5-0.4,0.8-0.6c0.5-0.3,1.1-0.6,1.2-1c0.2-1.2,0.3-2.5,0.3-3.7c0-0.5-0.5-0.9-0.9-1.4 c-0.3-0.3-0.7-0.7-0.7-0.9c-0.4-3.8-1.9-7.5-4.3-10.5c-1.1-6.3-5.3-8.3-5.4-8.3c0.1,0.2,2.8,4.1,0.9,8.7c-1.9,4.7-6.9,3.9-7.4,4 c-0.4,0-2.1,2.1-4.1,6c-0.3-0.1-1.4-0.4-2.6-0.2c0.9-2.6,2.4-6.4,2.6-6.7c0.1-0.1,0.9-0.3,1.4-0.5c1-0.3,1.5-0.4,1.6-0.6 c0.1-0.2,0.6-1.4,1.2-2.6c0.5,0,1.7-0.1,1.8-0.2c0.1-0.1,1.1-2.7,1.1-3c0-0.3-2.1-5.4-2.8-7.3c0.4-0.4,0.7-0.9,1.1-1.5 c10.8,1.2,19.2,10.3,19.2,21.4C52.8,41.3,47.8,48.7,40.5,52.2z"></path> <path class="st2" d="M26.5,23.7c1-1.2,0.5-3.3-1.4-3.7c0.5-1.1,1.2-3.3,1.2-3.3s-5.4,8.4-5.8,8.6c-0.5,0.2-0.9-1.7-0.9-1.7 c-1,3.8,1.7,4.4,2,3.2C23,26.4,25.5,24.9,26.5,23.7z"></path> <path class="st1" d="M22,25.8l2.7-4.7c0,0,1.6,0.8,0.8,2.1C24.5,24.6,22,25.8,22,25.8z"></path> <path class="st1" d="M55.8,47.5c-0.8,1.1-1.7,2.2-2.7,3.2c6.8-13.1,0.3-25,0-25.5c0.5,0.5,0.9,1,1.4,1.5 C59.7,32.5,60.3,41.2,55.8,47.5z"></path> <path class="st1" d="M62.1,30.7C59.7,24.3,56.4,18.9,49,14c-7.2-4.7-14.8-4.4-15.3-4.3c0,0-0.1,0-0.1,0c0.3-0.1,0.5-0.2,0.8-0.2 C36,9,38.1,8.5,40.2,8.3c5.6-0.8,11.2,1.1,15,5.2c0,0,0,0,0.1,0.1C59.7,18.2,62,24,62.1,30.7z"></path> <path class="st1" d="M47.3,4.7c-7.8-1.5-12.9-0.7-16.5,0.6C30.6,4.9,30.3,4,30,3.3c-1.1,1.3-2.3,2.9-3,3.9c-2,1.4-2.8,2.7-2.8,2.7 C25.3,6,28.7,3,32.8,2.3C33.9,2.1,35.2,2,36.5,2C40.2,2,43.8,2.9,47.3,4.7z"></path> <path class="st1" d="M18.3,14.8c-6.2-0.2-4.1-7.4-4-7.8C14.3,7,14.7,12.6,18.3,14.8z"></path> <path class="st1" d="M24.3,1.9c-4.7,2.8-3.8,9.6-3.8,9.6C16,4.6,24,2,24.3,1.9z"></path> <path class="st1" d="M16.5,16.6c0.3,0.3,0.6,0.7,0.3,1.4c-0.2,0.4-0.5,0.3-1,0.1c-0.6-0.3-4.4-2.5-7.8-4.8c3.9,1.4,7.8,2.8,8.5,3.2 C16.4,16.5,16.5,16.6,16.5,16.6z"></path> </g> </svg> 