<?xml version="1.0" encoding="UTF-8"?> <!-- Generator: Adobe Illustrator 25.0.0, SVG Export Plug-In . SVG Version: 6.00 Build 0) --> <svg xmlns="http://www.w3.org/2000/svg" xmlns:xlink="http://www.w3.org/1999/xlink" version="1.1" id="Layer_1" x="0px" y="0px" viewBox="0 0 136 35" style="enable-background:new 0 0 136 35;" xml:space="preserve"> <style type="text/css"> .st0{fill:#15182B;} </style> <path class="st0" d="M117.6,19.8l0.1-1.2c0-0.4,0-0.8,0.1-1.3c0-1,0.1-2,0.2-3c0.2-1.5,1.4-2.6,2.9-2.6c1.6,0,2.8,1,3,2.6 c0.2,1,0.2,2,0.2,3c0,0.4,0,0.8,0.1,1.3l0.1,1.2L117.6,19.8L117.6,19.8z M135.5,19.6c-0.4-3-0.9-5.8-1.5-8 c-1.5-7.1-6.5-11.6-12.7-11.6c-6.1,0.1-11.2,4.6-12.7,11.6c-0.9,3.2-1.5,6.8-1.8,10.4c-0.1,1.6-0.2,3.3-0.2,4.9 c0,3.5,0.5,5.7,1.7,6.9c0.7,0.7,1.7,1.1,3.1,1.1c2.5,0,4.3-1.9,5.4-3.7c0.9-1.5,2-3.4,4.5-3.4c2.6,0,3.7,1.9,4.5,3.4 c1,1.8,2.9,3.7,5.4,3.7c1.4,0,2.4-0.3,3.1-1.1c1.2-1.2,1.7-3.4,1.7-6.9C136,24.3,135.8,22.1,135.5,19.6z M11.8,19.8l0.1-1.2 c0-0.4,0-0.8,0.1-1.3c0-1,0.1-2,0.2-3c0.2-1.5,1.4-2.6,2.9-2.6c1.6,0,2.8,1,3,2.6c0.2,1,0.2,2,0.2,3c0,0.4,0,0.8,0.1,1.3l0.1,1.2 L11.8,19.8L11.8,19.8z M28.9,19.6c-0.4-3-0.9-5.8-1.5-8C25.8,4.6,20.9,0.1,14.7,0C8.5,0.1,3.5,4.6,2,11.6C1.1,14.8,0.5,18.4,0.2,22 C0.1,23.6,0,25.3,0,26.9c0,3.5,0.5,5.7,1.7,6.9c0.7,0.7,1.7,1.1,3.1,1.1c2.5,0,4.3-1.9,5.4-3.7c0.9-1.5,2-3.4,4.5-3.4 c2.6,0,3.7,1.9,4.5,3.4c1,1.8,2.9,3.7,5.4,3.7c1.4,0,2.4-0.3,3.1-1.1c1.2-1.2,1.7-3.4,1.7-6.9C29.4,24.3,29.2,22.1,28.9,19.6z M87.6,15.2c-1,0.2-2.1,0.2-3.1,0.2c-0.5,0-0.9,0-1.4,0.1l-0.9,0.1V9L83,9c0.5,0,0.9,0,1.4,0.1c1,0,2.1,0.1,3.2,0.2 c1.5,0.2,2.5,1.4,2.6,2.9C90.1,13.7,89.1,14.9,87.6,15.2z M102.6,28.5c-3.7-1.5-5.6-3.8-7.5-6.6L94.5,21l1-0.5 c0.3-0.1,0.5-0.3,0.8-0.4c0.5-0.3,0.9-0.5,1.3-0.8c0.8-0.6,1.3-1,1.7-1.5c1.8-2,2.3-4.8,1.9-7.7c-0.5-3.2-2.3-6-4.9-7.7 C93.7,0.8,90.8,0,86.7,0c-3.9,0-8,0-11.9,0c-0.8,0-1.5,0.1-2.3,0.2c-1.6,0.3-2.6,1.2-2.8,2.7c-0.1,0.7-0.1,1.4-0.1,2 c0,8.3,0,16.6,0,24.9c0,0.7,0.1,1.3,0.1,2c0.2,1.6,1,2.4,2.6,2.6c1.8,0.2,4,0.2,5.6,0c2.2-0.2,3.1-1.2,3.2-3.4c0-1.5,0-3.1,0-4.5 c0-0.7,0-1.3,0-2v-2.1c0,0,1.3-0.1,1.7-0.1c1.5,0,1.9,1,2.4,2.3l0.1,0.3c0.1,0.2,0.1,0.3,0.2,0.5l0.1,0.3c1.2,2.8,2.4,5.4,4.5,7.5 c1.4,1.4,3.5,1.8,5.5,1.8c0.9,0,1.7-0.1,2.5-0.4C100.6,33.6,102.5,31,102.6,28.5C102.6,28.5,102.6,28.5,102.6,28.5L102.6,28.5z M52.9,24.9c-0.6,0.2-1.3,0.3-2,0.3c-0.5,0-0.9,0-1.4,0c-0.3,0-0.7,0-1,0c-0.3,0-0.7,0-1,0h-0.9v-5.4l0.9,0c0.5,0,1,0,1.5,0.1 c1.2,0,2.4,0.1,3.5,0.2c1.2,0.1,2,1,2.1,2.3C54.6,23.6,54,24.5,52.9,24.9z M46.6,9l0.8,0c0.4,0,0.7,0,1.1,0c0.9,0,1.8,0.1,2.7,0.2 c1.2,0.2,1.9,1,2,2.3c0.1,1.4-0.6,2.4-1.9,2.6c-0.9,0.1-1.8,0.2-2.7,0.2c-0.4,0-0.8,0-1.2,0.1l-0.8,0.1V9z M59.9,16.1 c0,0,5.7-1.9,4.9-8.8c-0.4-3.3-2.8-5.5-5.7-6.3c-2.1-0.5-4.4-0.9-7-1C50.6,0,49,0,47.1,0c-1.4,0-2.7,0-4.1,0c-1,0-2,0-3,0 c-0.8,0-1.5,0.1-2.3,0.2C36.1,0.5,35.2,1.4,35,3c-0.1,0.8-0.1,1.4-0.1,2c0,8.3,0,16.7,0,25c0,0.8,0.1,1.4,0.2,2.1 c0.2,1.4,1,2.2,2.5,2.5c0.6,0.1,1.2,0.2,1.7,0.2l2.7,0c1.8,0,3.5,0,5.3,0c2.5,0,4.6,0,6.6-0.1c3.1-0.1,5.6-0.7,7.9-2 c2.6-1.5,4.2-4,4.7-7C67.3,19.3,59.9,16.1,59.9,16.1L59.9,16.1z"></path> </svg> 