<?xml version="1.0" encoding="UTF-8"?> <!-- Generator: Adobe Illustrator 25.0.0, SVG Export Plug-In . SVG Version: 6.00 Build 0) --> <svg xmlns="http://www.w3.org/2000/svg" xmlns:xlink="http://www.w3.org/1999/xlink" version="1.1" id="Layer_1" x="0px" y="0px" viewBox="0 0 157 60" style="enable-background:new 0 0 157 60;" xml:space="preserve"> <style type="text/css"> .st0{fill-rule:evenodd;clip-rule:evenodd;fill:#15182B;} </style> <path class="st0" d="M30,60c16.6,0,30-13.4,30-30S46.6,0,30,0S0,13.4,0,30S13.4,60,30,60z M30.1,57.2c15,0,27.2-12.2,27.2-27.2 S45.1,2.8,30.1,2.8C15.1,2.8,2.9,15,2.9,30S15.1,57.2,30.1,57.2z M30,55.1c13.9,0,25.1-11.2,25.1-25.1S43.9,4.9,30,4.9 S4.9,16.1,4.9,30S16.1,55.1,30,55.1z M30.1,52c12.2,0,22.1-9.9,22.1-22.1c0-12.2-9.9-22.1-22.1-22.1C17.9,7.8,8,17.7,8,29.9 C8,42.1,17.9,52,30.1,52z M28.8,12.1l16,27.8l1.7-3L32.2,12.1H28.8z M13.5,36.8l13.7-23.8l0,0l0,0l16.2,28.2H40l-4.1-7.1 c-1.9-0.6-3.8-0.9-5.9-0.9c-1.1,0-2.1,0.1-3.1,0.2l2-3.4c0.4,0,0.7,0,1.1,0c1.3,0,2.5,0.1,3.7,0.3L27.2,19l-12,20.8L13.5,36.8z M22.8,36.5l6.2-10.7l-1.7-3L16.6,41.2H20l0-0.1c2.9-1.8,6.3-2.7,10-2.7c2.4,0,4.6,0.4,6.7,1.2l-2.3-4c-1.5-0.3-2.9-0.4-4.4-0.4 C27.5,35.3,25.1,35.7,22.8,36.5z"></path> <path class="st0" d="M74.4,33H80l-2.8-8.2L74.4,33z M82.3,39.7L81,36h-7.7L72,39.7h-4.2l7-19.6h4.7l6.9,19.6H82.3z"></path> <path class="st0" d="M92.1,37.7c-1.4-1.5-2.1-3.4-2.1-5.8c0-2.4,0.7-4.3,2.1-5.8c1.4-1.5,3.3-2.2,5.6-2.2c1.9,0,3.5,0.5,4.8,1.4 c1.3,0.9,2.1,2.2,2.6,3.9h-4.3c-0.5-1.3-1.5-1.9-3-1.9c-1.1,0-2,0.4-2.7,1.2c-0.6,0.8-1,2-1,3.4c0,1.4,0.3,2.6,1,3.4 c0.6,0.8,1.5,1.2,2.7,1.2c1.5,0,2.5-0.7,3-2h4.3c-0.5,1.6-1.3,2.9-2.6,3.9c-1.3,1-2.9,1.4-4.7,1.4C95.4,39.9,93.5,39.2,92.1,37.7z"></path> <path class="st0" d="M120.4,35.3c0.8-0.8,1.2-1.9,1.2-3.3c0-1.4-0.4-2.5-1.2-3.3c-0.8-0.8-1.8-1.2-2.9-1.2c-1.1,0-2.1,0.4-2.9,1.2 c-0.8,0.8-1.2,1.9-1.2,3.3c0,1.4,0.4,2.5,1.2,3.4c0.8,0.8,1.8,1.2,2.9,1.2S119.6,36.1,120.4,35.3z M111.4,37.7 c-1.4-1.5-2.1-3.4-2.1-5.8c0-2.3,0.7-4.2,2.1-5.7c1.4-1.5,3.2-2.2,5.3-2.2c2.1,0,3.8,0.9,4.9,2.6v-2.4h4v15.5h-4v-2.6 c-1.2,1.9-2.8,2.8-4.9,2.8C114.6,39.9,112.8,39.2,111.4,37.7z"></path> <path class="st0" d="M131.5,39.9h4V20.3h-4V39.9z"></path> <path class="st0" d="M151.1,35.2c0.8-0.8,1.2-1.9,1.2-3.3c0-1.4-0.4-2.5-1.2-3.3c-0.8-0.8-1.8-1.2-2.9-1.2c-1.1,0-2.1,0.4-2.9,1.2 c-0.8,0.8-1.2,1.9-1.2,3.3c0,1.4,0.4,2.5,1.2,3.4c0.8,0.8,1.8,1.2,2.9,1.2S150.3,36,151.1,35.2z M142.2,37.6 c-1.4-1.5-2.1-3.4-2.1-5.8c0-2.3,0.7-4.2,2.1-5.7c1.4-1.5,3.2-2.2,5.3-2.2c2.1,0,3.8,0.9,4.9,2.6v-2.4h4v15.5h-4V37 c-1.2,1.9-2.8,2.8-4.9,2.8C145.3,39.9,143.6,39.1,142.2,37.6z"></path> </svg> 