<?xml version="1.0" encoding="UTF-8"?> <!-- Generator: Adobe Illustrator 25.0.0, SVG Export Plug-In . SVG Version: 6.00 Build 0) --> <svg xmlns="http://www.w3.org/2000/svg" xmlns:xlink="http://www.w3.org/1999/xlink" version="1.1" id="Layer_1" x="0px" y="0px" viewBox="0 0 188 32" style="enable-background:new 0 0 188 32;" xml:space="preserve"> <style type="text/css"> .st0{fill:#15182B;} </style> <path class="st0" d="M147.9,13.4v5.5h-17.1V26h17.7v5.9h-23.7c0-6.1,0-12.3,0-18.5H147.9z M20.4,0.1c0.3,0,0.5,0.1,0.7,0.4 c4.6,10.3,9.2,20.7,13.8,31c0,0.1,0.1,0.2,0.1,0.4h-2.4c-1.2,0-2.4,0-3.6,0c-0.4,0-0.7-0.1-0.9-0.6c-2.7-6.3-5.5-12.5-8.2-18.8 c-0.8-1.9-1.6-3.8-2.5-5.8c-0.1,0.3-0.2,0.4-0.3,0.6c-3.5,8-7,15.9-10.5,23.9c-0.2,0.4-0.4,0.6-0.9,0.6c-1.3,0-2.6,0-3.9,0l-2,0 c0.1-0.2,0.2-0.4,0.3-0.6C4.9,21,9.5,10.8,14,0.6c0.2-0.4,0.4-0.6,0.9-0.6C16.7,0.1,18.6,0.1,20.4,0.1z M48.1,0.2 c0.4,0,0.6,0.1,0.7,0.4C51.9,4.8,55,9,58.1,13.2c0.1,0.1,0.2,0.3,0.4,0.5c0.1-0.2,0.3-0.3,0.4-0.5c3.1-4.2,6.1-8.4,9.2-12.7 c0.3-0.3,0.5-0.4,0.9-0.4c1.9,0,3.8,0,5.6,0h0.6v31.7h-5.9V9.1L69.2,9c-0.1,0.1-0.2,0.3-0.3,0.4c-3.2,4.2-6.4,8.5-9.5,12.7 c-0.6,0.7-1.4,0.7-1.9,0c-3.1-4.2-6.2-8.4-9.2-12.7C48,9.3,47.9,9.1,47.8,9c0,0-0.1,0-0.1,0.1v22.8h-5.9V0.2c0.1,0,0.3,0,0.5,0H48.1 z M175.2,0c1.8,0,3.6,0.4,5.2,1.2c3.8,1.8,6.1,5.6,5.8,9.8c-0.1,1.3-0.3,2.7-0.7,3.9c-1.2,3-3.5,4.7-6.5,5.5c-0.2,0-0.4,0.1-0.7,0.2 c0.3,0.3,0.5,0.6,0.8,0.9c2.8,3.2,5.6,6.4,8.5,9.6c0.2,0.2,0.3,0.4,0.4,0.7h-6.8c-0.3,0-0.6-0.1-0.7-0.3c-2.8-3.3-5.7-6.5-8.5-9.8 c-0.3-0.4-0.7-0.5-1.2-0.5c-1.6,0-3.3,0-5,0v10.6c-2.1,0-4,0-6,0v-16h0.7c4.7,0,9.4,0,14.1,0c0.8,0,1.7-0.1,2.5-0.3 c2.3-0.7,3.6-2.8,3.3-5.5c-0.2-2.2-2-4-4.3-4.3c-0.5-0.1-1-0.1-1.5-0.1h-14.7V0c0.1,0,0.3,0,0.4,0H175.2z M102.1,0 c1.9,0,3.8,0.3,5.5,1.1c3,1.4,4.6,3.8,4.9,7.1c0.3,3.3-0.9,5.7-4,7.1c0.1,0.1,0.1,0.1,0.2,0.1c3.3,1.2,5,4.9,4.8,7.6 c-0.2,3.7-1.8,6.3-5.3,7.7c-1,0.4-2.1,0.7-3.1,0.8c-1.2,0.2-2.4,0.3-3.5,0.3H86.6V12.9h0.7c5.1-0.1,10.1-0.1,15.1-0.2 c0.7,0,1.5-0.2,2.1-0.4c1.9-0.7,2.6-2.6,1.7-4.4c-0.7-1.4-1.9-2.1-3.4-2.3c-0.5-0.1-1-0.1-1.5-0.1c-4.7,0-9.4,0-14.1-0.1h-0.7V0 c0.1,0,0.3,0,0.4,0H102.1z M101.7,18H93c-0.2,0-0.3,0-0.5,0v8.1c3.4,0,6.7,0,10,0c1.1,0,2.2-0.3,3.2-0.8c0.9-0.4,1.5-1.1,1.8-2 c0.4-1.4-0.1-2.8-1.4-3.8C104.8,18.5,103.3,18,101.7,18z M148.5,0.2v5.7h-23.7V0.2H148.5z"></path> </svg> 