<?xml version="1.0" encoding="UTF-8"?> <!-- Generator: Adobe Illustrator 25.0.0, SVG Export Plug-In . SVG Version: 6.00 Build 0) --> <svg xmlns="http://www.w3.org/2000/svg" xmlns:xlink="http://www.w3.org/1999/xlink" version="1.1" id="Layer_1" x="0px" y="0px" viewBox="0 0 164 60" style="enable-background:new 0 0 164 60;" xml:space="preserve"> <style type="text/css"> .st0{fill:#15182B;} </style> <path class="st0" d="M92,22.7h-4.4c0,4.4-3,7.6-7.3,7.6h-3.9V14H72v32h4.4V34.7h3.9c4.3,0.1,7.2,2.9,7.2,7.4V46H92v-4 c0-4.6-2.6-7.9-5.7-9.5C89.4,31,92,26.8,92,22.7z"></path> <path class="st0" d="M26,22.4c-3.1,0-5.8,1.3-7.5,2.9V14H14v31.7h4.5v-2.6c1.8,1.6,4.4,2.9,7.5,2.9c6.6,0,12-5.2,12-11.8 C38,27.6,32.6,22.4,26,22.4z M26,41.7c-4.2,0-7.5-3.3-7.5-7.5s3.4-7.5,7.5-7.5c4.2,0,7.5,3.4,7.5,7.5C33.5,38.3,30.2,41.7,26,41.7z"></path> <path class="st0" d="M0,60h152V0H0V60z M4.5,4.4h143v51.1H4.5V4.4z"></path> <path class="st0" d="M118,22.7h-4.4c0,4.4-3,7.6-7.3,7.6h-3.9V14H98v32h4.4V34.7h3.9c4.3,0.1,7.2,2.9,7.2,7.4V46h4.4v-4 c0-4.6-2.6-7.9-5.7-9.5C115.4,31,118,26.8,118,22.7z"></path> <path class="st0" d="M61.2,25c-1.9-1.7-4.8-3-8.2-3c-7.2,0-13,5.4-13,12c0,6.6,5.8,12,13,12c3.4,0,6.2-1.3,8.2-2.9v2.7H66V22.3h-4.8 V25z M53,41.6c-4.5,0-8.1-3.4-8.1-7.6c0-4.2,3.6-7.6,8.1-7.6c4.5,0,8.2,3.4,8.2,7.6C61.2,38.3,57.5,41.6,53,41.6z"></path> <path class="st0" d="M133.6,18.2V16h-4.8v1.9c0,3.2-2.3,5.3-5.8,5.3H122v4.3h5.7v10c0,5.4,3.4,8.6,9.3,8.6h2.6v-4.3h-2.5 c-3.1,0-4.7-1.5-4.7-4.4v-9.8h7.5v-4.3h-8.5C132.9,21.9,133.6,20,133.6,18.2z"></path> <path class="st0" d="M156,0.7h0.7V4h0.5V0.7h0.7V0h-2V0.7z"></path> <path class="st0" d="M163.5,0L162,2.3L160.5,0H160v4h0.8V1.7l1,1.5h0.5l1-1.5V4h0.8V0H163.5z"></path> </svg> 